<?xml version="1.0" encoding="UTF-8"?>
<svg id="Capa_2" data-name="Capa 2" xmlns="http://www.w3.org/2000/svg" viewBox="0 0 407.88 368.33">
  <defs>
    <style>
      .cls-1 {
        fill: #f4d7b8;
      }

      .cls-2 {
        fill: #683c11;
      }

      .cls-3 {
        fill: #063;
      }

      .cls-4 {
        fill: #ffed00;
      }

      .cls-5 {
        fill: #e30613;
      }
    </style>
  </defs>
  <g id="Capa_1-2" data-name="Capa 1">
    <g>
      <path class="cls-4" d="M407.88,273.51h-91.51l-24.66,18.34-23.91-18.34H0v-14.61c0-9.15,7.42-16.57,16.57-16.57H391.31c9.15,0,16.57,7.42,16.57,16.57v14.61Z"/>
      <path class="cls-1" d="M399.11,186.43c.18-17.07-1.46-70.14-39.73-117.86C301.67-3.41,210.99-.34,201.1,.16,190.94,0,99.5,.05,44.35,74.03,10.44,119.51,8.56,168.38,8.77,186.43H399.11Zm-37.39-68.27c4.1,0,7.41,3.31,7.41,7.41s-3.31,7.41-7.41,7.41-7.41-3.32-7.41-7.41,3.31-7.41,7.41-7.41Zm-12.06-26.39c4.09,0,7.41,3.32,7.41,7.41s-3.32,7.41-7.41,7.41-7.41-3.31-7.41-7.41,3.31-7.41,7.41-7.41Zm-16.63,24.23c4.1,0,7.41,3.32,7.41,7.41s-3.31,7.41-7.41,7.41-7.41-3.31-7.41-7.41,3.31-7.41,7.41-7.41Zm-105.46-37.03c6.25-11.08,16.92-20.42,30.02-26.29,27.47-12.29,57.38-5.35,66.69,15.48,4.6,10.29,3.59,22.27-2.89,33.75-6.24,11.09-16.91,20.42-30.01,26.29-9.05,4.05-18.56,6.13-27.67,6.13-4.09,0-8.08-.42-11.93-1.26-12.87-2.83-22.49-10.04-27.09-20.34-4.62-10.3-3.59-22.28,2.88-33.76Zm-24.42,75.21c8.4,.75,15-4.94,19.42-11.91,.72-1.18,2.67-.42,2.41,.94-2.81,17.93-23.35,24.81-36.88,12.88-3.79-3.49-6.64-7.72-7.95-12.7-.35-1.36,1.46-2.26,2.35-1.17,5.88,5.91,12.25,11.44,20.66,11.96ZM83.58,68.16c9.32-20.83,39.24-27.77,66.69-15.48,13.1,5.87,23.77,15.21,30.02,26.29,6.47,11.48,7.49,23.46,2.89,33.76-4.6,10.3-14.23,17.51-27.09,20.34-3.85,.84-7.86,1.26-11.93,1.26-9.12,0-18.62-2.08-27.67-6.13-13.1-5.87-23.77-15.2-30.02-26.29-6.47-11.48-7.49-23.46-2.89-33.75Z"/>
      <g>
        <path class="cls-2" d="M388.62,254.26h-40.26c-12.52,1.31-22.04,4.83-28.02,7.56-8.81,4.02-15.1,8.67-18.14,10.94-4.43,3.31-7.94,6.47-10.49,8.94-4.88-4.98-12.3-11.42-22.56-16.88-13.16-7-24.12-9.68-31.92-10.56H19.25c-10.63,0-19.25,8.62-19.25,19.25s8.62,19.25,19.25,19.25H388.62c10.63,0,19.25-8.62,19.25-19.25s-8.62-19.25-19.25-19.25Z"/>
        <path class="cls-1" d="M19.43,302.61c0,36.3,29.43,65.73,65.73,65.73h237.58c36.3,0,65.73-29.43,65.73-65.73h0s-369.03,0-369.03,0h0Z"/>
      </g>
      <path class="cls-3" d="M11.07,221.84c.99,.06,1.95,.11,2.92,.17q10.77,2.65,19.98,9.01c4.98,3.3,9.15,5.03,15.14,6.13,11.79,1.18,19.75-2.24,29.15-8.65,3.23-2.43,6.18-4.38,10.05-5.77,8.22-1.12,16.4-1.21,23.35,3.41,1.69,1.19,3.4,2.35,5.13,3.49q1.35,.88,2.68,1.75c5.71,4.01,10.85,5.12,17.85,5.36,.96,.01,1.89,.03,2.82,.04,9.29,.23,14.83-2.25,22.34-7.28,4.12-3.01,7.84-5.66,13.01-6.58,11.04-.96,16.77-.17,25.66,5.99,6.84,4.83,13.05,7.62,21.67,7.61,.79-.02,1.56-.03,2.33-.05,7.92,.03,13.39-1.03,20.14-5.32,6.14-4,11.91-8.04,19.51-8.78,1.21,.02,2.39,.03,3.57,.05,5.69,.02,9.53,.68,14.27,3.71,1.67,1.19,3.36,2.35,5.07,3.49,.9,.59,1.78,1.17,2.65,1.75,5.68,3.93,10.66,5.09,17.59,5.27,.92,0,1.82,.01,2.71,.02,7.67,.05,13.24-.95,19.72-5.23,5.08-3.81,9.8-7.6,16.28-8.71,11.07-.93,17.83,.45,26.64,6.73,6.84,4.88,11.46,6.85,20.04,6.97,2.4-.03,4.83,.49,6.6-1.2,.04-1.92,.04-3.84,0-5.77q-2.01-.96-3.94-1.16c-8.13-.56-13.16-2.85-19.62-7.49-6.54-4.92-12.48-7.08-20.79-7.12-.84,.01-1.65,.02-2.46,.03-7.59-.1-12.64,.8-19.09,4.86-5.14,3.71-10.19,7.46-16.53,8.95-7.47,.51-14.84,1.26-21.17-3.06-6.2-4.32-12.57-8.51-20.04-10.39-12.09-1.49-21.26-.44-31.16,6.73-3.56,2.64-6.9,5.03-11.06,6.73-6.95,1.07-16.25,1.46-22.27-2.32-6.6-4.77-13.7-10.24-22.09-11.44-10.28-.83-20.03-.25-28.46,5.95-4.24,3.36-8.43,6.01-13.63,7.81-6.73,.9-15.43,1.41-21.21-2.32-1.7-1.19-3.42-2.37-5.15-3.52-.95-.63-1.88-1.24-2.8-1.85-8.02-5.5-14.55-6.56-24.17-6.07-1.35,.1-2.66,.2-3.97,.3-7.38,.49-11.65,3.48-17.49,7.71-3.45,2.5-6.43,4.7-10.66,5.74-8.65,.6-16.38,1.13-23.59-3.93-7.78-5.49-14.78-9.68-24.73-9.83-2.31,.06-4.29-.35-5.97,1.26,.29,2.25,.62,4.49,1.01,6.73,.74,.03,1.45,.05,2.17,.08Z"/>
      <path class="cls-4" d="M11.07,211.84c.99,.06,1.95,.11,2.92,.17q10.77,2.65,19.98,9.01c4.98,3.3,9.15,5.03,15.14,6.13,11.79,1.18,19.75-2.24,29.15-8.65,3.23-2.43,6.18-4.38,10.05-5.77,8.22-1.12,16.4-1.21,23.35,3.41,1.69,1.19,3.4,2.35,5.13,3.49q1.35,.88,2.68,1.75c5.71,4.01,10.85,5.12,17.85,5.36,.96,.01,1.89,.03,2.82,.04,9.29,.23,14.83-2.25,22.34-7.28,4.12-3.01,7.84-5.66,13.01-6.58,11.04-.96,16.77-.17,25.66,5.99,6.84,4.83,13.05,7.62,21.67,7.61,.79-.02,1.56-.03,2.33-.05,7.92,.03,13.39-1.03,20.14-5.32,6.14-4,11.91-8.04,19.51-8.78,1.21,.02,2.39,.03,3.57,.05,5.69,.02,9.53,.68,14.27,3.71,1.67,1.19,3.36,2.35,5.07,3.49,.9,.59,1.78,1.17,2.65,1.75,5.68,3.93,10.66,5.09,17.59,5.27,.92,0,1.82,.01,2.71,.02,7.67,.05,13.24-.95,19.72-5.23,5.08-3.81,9.8-7.6,16.28-8.71,11.07-.93,17.83,.45,26.64,6.73,6.84,4.88,11.46,6.85,20.04,6.97,2.4-.03,4.83,.49,6.6-1.2,.04-1.92,.04-3.84,0-5.77q-2.01-.96-3.94-1.16c-8.13-.56-13.16-2.85-19.62-7.49-6.54-4.92-12.48-7.08-20.79-7.12-.84,.01-1.65,.02-2.46,.03-7.59-.1-12.64,.8-19.09,4.86-5.14,3.71-10.19,7.46-16.53,8.95-7.47,.51-14.84,1.26-21.17-3.06-6.2-4.32-12.57-8.51-20.04-10.39-12.09-1.49-21.26-.44-31.16,6.73-3.56,2.64-6.9,5.03-11.06,6.73-6.95,1.07-16.25,1.46-22.27-2.32-6.6-4.77-13.7-10.24-22.09-11.44-10.28-.83-20.03-.25-28.46,5.95-4.24,3.36-8.43,6.01-13.63,7.81-6.73,.9-15.43,1.41-21.21-2.32-1.7-1.19-3.42-2.37-5.15-3.52-.95-.63-1.88-1.24-2.8-1.85-8.02-5.5-14.55-6.56-24.17-6.07-1.35,.1-2.66,.2-3.97,.3-7.38,.49-11.65,3.48-17.49,7.71-3.45,2.5-6.43,4.7-10.66,5.74-8.65,.6-16.38,1.13-23.59-3.93-7.78-5.49-14.78-9.68-24.73-9.83-2.31,.06-4.29-.35-5.97,1.26,.29,2.25,.62,4.49,1.01,6.73,.74,.03,1.45,.05,2.17,.08Z"/>
      <path class="cls-5" d="M11.07,201.84c.99,.06,1.95,.11,2.92,.17q10.77,2.65,19.98,9.01c4.98,3.3,9.15,5.03,15.14,6.13,11.79,1.18,19.75-2.24,29.15-8.65,3.23-2.43,6.18-4.38,10.05-5.77,8.22-1.12,16.4-1.21,23.35,3.41,1.69,1.19,3.4,2.35,5.13,3.49q1.35,.88,2.68,1.75c5.71,4.01,10.85,5.12,17.85,5.36,.96,.01,1.89,.03,2.82,.04,9.29,.23,14.83-2.25,22.34-7.28,4.12-3.01,7.84-5.66,13.01-6.58,11.04-.96,16.77-.17,25.66,5.99,6.84,4.83,13.05,7.62,21.67,7.61,.79-.02,1.56-.03,2.33-.05,7.92,.03,13.39-1.03,20.14-5.32,6.14-4,11.91-8.04,19.51-8.78,1.21,.02,2.39,.03,3.57,.05,5.69,.02,9.53,.68,14.27,3.71,1.67,1.19,3.36,2.35,5.07,3.49,.9,.59,1.78,1.17,2.65,1.75,5.68,3.93,10.66,5.09,17.59,5.27,.92,0,1.82,.01,2.71,.02,7.67,.05,13.24-.95,19.72-5.23,5.08-3.81,9.8-7.6,16.28-8.71,11.07-.93,17.83,.45,26.64,6.73,6.84,4.88,11.46,6.85,20.04,6.97,2.4-.03,4.83,.49,6.6-1.2,.04-1.92,.04-3.84,0-5.77q-2.01-.96-3.94-1.16c-8.13-.56-13.16-2.85-19.62-7.49-6.54-4.92-12.48-7.08-20.79-7.12-.84,.01-1.65,.02-2.46,.03-7.59-.1-12.64,.8-19.09,4.86-5.14,3.71-10.19,7.46-16.53,8.95-7.47,.51-14.84,1.26-21.17-3.06-6.2-4.32-12.57-8.51-20.04-10.39-12.09-1.49-21.26-.44-31.16,6.73-3.56,2.64-6.9,5.03-11.06,6.73-6.95,1.07-16.25,1.46-22.27-2.32-6.6-4.77-13.7-10.24-22.09-11.44-10.28-.83-20.03-.25-28.46,5.95-4.24,3.36-8.43,6.01-13.63,7.81-6.73,.9-15.43,1.41-21.21-2.32-1.7-1.19-3.42-2.37-5.15-3.52-.95-.63-1.88-1.24-2.8-1.85-8.02-5.5-14.55-6.56-24.17-6.07-1.35,.1-2.66,.2-3.97,.3-7.38,.49-11.65,3.48-17.49,7.71-3.45,2.5-6.43,4.7-10.66,5.74-8.65,.6-16.38,1.13-23.59-3.93-7.78-5.49-14.78-9.68-24.73-9.83-2.31,.06-4.29-.35-5.97,1.26,.29,2.25,.62,4.49,1.01,6.73,.74,.03,1.45,.05,2.17,.08Z"/>
    </g>
  </g>
</svg>