<?xml version="1.0" encoding="UTF-8"?>
<svg id="Capa_2" data-name="Capa 2" xmlns="http://www.w3.org/2000/svg" viewBox="0 0 1072.43 368.33">
  <defs>
    <style>
      .cls-1 {
        fill: #f4d7b8;
      }

      .cls-2 {
        fill: #683c11;
      }

      .cls-3 {
        fill: #063;
      }

      .cls-4 {
        fill: #fff;
      }

      .cls-5 {
        fill: #ffed00;
      }

      .cls-6 {
        fill: #e30613;
      }
    </style>
  </defs>
  <g id="Capa_1-2" data-name="Capa 1">
    <g>
      <path class="cls-5" d="M415.97,273.51h-91.51l-24.66,18.34-23.91-18.34H8.09v-14.61c0-9.15,7.42-16.57,16.57-16.57H399.4c9.15,0,16.57,7.42,16.57,16.57v14.61Z"/>
      <g>
        <path class="cls-4" d="M419.02,362.86l20.03-94.87h45.08c7.86,0,14.83,1.42,20.92,4.27,6.09,2.85,10.88,6.95,14.36,12.3,3.48,5.35,5.23,11.86,5.23,19.52,0,1.87-.12,3.78-.37,5.75-.25,1.97-.61,4.03-1.1,6.19-2.46,10.9-6.04,19.81-10.75,26.74-4.71,6.92-10.97,12.01-18.78,15.25s-17.65,4.86-29.54,4.86h-45.08Zm41.4-27.11h5.3c3.93,0,7.24-.49,9.94-1.47,2.7-.98,4.96-2.9,6.78-5.75,1.82-2.85,3.31-7.02,4.49-12.52,.49-1.96,.81-3.71,.96-5.23,.15-1.52,.22-2.92,.22-4.2,0-4.03-1.16-6.6-3.46-7.73-2.31-1.13-5.92-1.69-10.83-1.69h-5.3l-8.1,38.6Z"/>
        <path class="cls-4" d="M528.03,362.86l20.03-94.87h75.87l-5.45,25.63h-40.22l-1.77,8.54h34.62l-5.6,26.52h-34.62l-1.92,8.54h40.22l-5.3,25.63h-75.87Z"/>
        <path class="cls-4" d="M617.3,362.86l20.03-94.87h35.65l-14.29,67.76h38.74l-5.75,27.11h-74.39Z"/>
        <path class="cls-4" d="M774.77,362.86l3.24-15.91h-40.22l4.86-22.54,57.3-56.42h30.49l-10.61,50.38h7.96l-6.19,28.58h-7.96l-3.24,15.91h-35.65Zm3.24-43.02h12.52l2.8-13.7-15.32,13.7Z"/>
        <path class="cls-4" d="M827.51,360.8l5.45-25.19h27.25l-5.45,25.19h-27.25Zm9.43-43.75l5.3-25.19h27.25l-5.3,25.19h-27.25Z"/>
        <path class="cls-4" d="M866.25,362.86l3.24-15.76c3.93-4.62,8.05-8.86,12.37-12.74,4.32-3.88,9.18-7.78,14.58-11.71,6.38-4.71,11.1-8.35,14.14-10.9,3.04-2.55,4.86-5.2,5.45-7.96,.1-.39,.15-.93,.15-1.62,0-3.54-2.95-5.3-8.84-5.3-4.42,0-8.77,.49-13.04,1.47-4.27,.98-8.42,2.26-12.45,3.83l6.33-29.61c4.71-1.86,10.14-3.34,16.28-4.42,6.14-1.08,12.4-1.62,18.78-1.62,9.92,0,17.6,2.21,23.05,6.63,5.45,4.42,8.18,10.26,8.18,17.53,0,1.08-.07,2.19-.22,3.31-.15,1.13-.32,2.28-.52,3.46-.88,4.03-2.06,7.51-3.54,10.46s-3.49,5.72-6.04,8.32c-2.55,2.6-5.89,5.43-10.02,8.47-2.46,1.77-5.06,3.66-7.81,5.67-2.75,2.01-4.81,3.81-6.19,5.38h26.22l-5.75,27.11h-74.39Z"/>
        <path class="cls-4" d="M999.86,364.33c-13.26,0-23.1-2.85-29.54-8.54-6.43-5.69-9.65-13.94-9.65-24.75,0-4.81,.59-10.02,1.77-15.62,2.26-10.51,5.55-19.39,9.87-26.66,4.32-7.27,10.39-12.79,18.19-16.57,7.81-3.78,17.9-5.67,30.27-5.67,13.16,0,22.98,2.87,29.46,8.62,6.48,5.75,9.72,14.12,9.72,25.12,0,4.62-.59,9.67-1.77,15.17-2.26,10.51-5.62,19.4-10.09,26.66-4.47,7.27-10.58,12.79-18.34,16.57-7.76,3.78-17.73,5.67-29.9,5.67Zm6.48-30.35c4.22,0,7.54-1.52,9.94-4.57,2.41-3.04,4.25-7.71,5.52-13.99,.39-1.77,.69-3.39,.88-4.86,.2-1.47,.29-2.85,.29-4.12,0-6.38-2.9-9.58-8.69-9.58-4.22,0-7.51,1.52-9.87,4.57-2.36,3.05-4.22,7.71-5.6,13.99-.39,1.77-.69,3.39-.88,4.86-.2,1.47-.29,2.85-.29,4.12,0,6.38,2.9,9.58,8.69,9.58Z"/>
      </g>
      <g>
        <path class="cls-4" d="M425.2,177.14V14.66h64.99v31.39h-31.94v31.66h30.65v30.56h-30.65v37.2h34.06v31.66h-67.11Z"/>
        <path class="cls-4" d="M503.02,177.14V14.66h32.5V149.44h33.42v27.69h-65.91Z"/>
        <path class="cls-4" d="M622.48,177.14V14.66h44.04c11.82,0,20.42,2.88,25.8,8.63,5.38,5.76,8.08,15.25,8.08,28.48v7.11c0,7.63-1.37,13.82-4.11,18.56-2.74,4.74-6.91,7.85-12.51,9.32,7.32,1.85,12.23,6.17,14.72,12.97,2.49,6.8,3.74,15.09,3.74,24.88,0,10.52-.98,19.73-2.95,27.6-1.97,7.88-5.54,14-10.71,18.37-5.17,4.37-12.52,6.55-22.06,6.55h-44.04Zm31.76-101.27h6.65c3.01,0,4.95-1.17,5.82-3.51,.86-2.34,1.29-5.14,1.29-8.4v-16.34c0-5.23-2.31-7.85-6.92-7.85h-6.83v36.1Zm3.23,72.65c8.43,0,12.65-4,12.65-12v-20.31c0-4.62-.69-8.26-2.08-10.94-1.38-2.68-3.99-4.02-7.8-4.02h-6v47.08c1.35,.12,2.43,.18,3.23,.18Z"/>
        <path class="cls-4" d="M708.52,177.14l15.69-162.48h55.11l15.42,162.48h-30.74l-2.31-26.22h-19.57l-2.03,26.22h-31.57Zm35.91-52.16h14.77l-7.11-82.62h-1.48l-6.19,82.62Z"/>
        <path class="cls-4" d="M840.72,178.61c-7.32,0-14-1.42-20.03-4.25-6.03-2.83-10.82-7.03-14.35-12.6-3.54-5.57-5.31-12.42-5.31-20.54v-40.71h32.13v38.77c0,2.83,.57,5.11,1.71,6.83,1.14,1.72,2.97,2.58,5.49,2.58,4.86,0,7.29-2.98,7.29-8.95V14.66h32.77v121.86c0,8.62-1.69,16.08-5.08,22.39-3.39,6.31-8.06,11.17-14.03,14.59-5.97,3.42-12.83,5.12-20.59,5.12Z"/>
        <path class="cls-4" d="M931.65,178.61c-12.99,0-22.91-3.92-29.77-11.77-6.86-7.85-10.29-19.19-10.29-34.02V55.65c0-13.91,3.4-24.46,10.2-31.67,6.8-7.2,16.76-10.8,29.86-10.8s23.06,3.6,29.86,10.8c6.8,7.2,10.2,17.76,10.2,31.67v77.18c0,14.83-3.43,26.17-10.29,34.02-6.86,7.85-16.79,11.77-29.77,11.77Zm.28-29.91c4.92,0,7.39-4.77,7.39-14.31V55.09c0-8-2.4-12-7.2-12-5.42,0-8.12,4.09-8.12,12.28v79.21c0,5.05,.61,8.66,1.85,10.85,1.23,2.19,3.26,3.28,6.09,3.28Z"/>
        <path class="cls-4" d="M984.82,177.14V14.66h33.42l14.96,77.82V14.66h31.39V177.14h-31.76l-16.25-81.24v81.24h-31.76Z"/>
      </g>
      <path class="cls-1" d="M407.2,186.43c.18-17.07-1.46-70.14-39.73-117.86C309.76-3.41,219.08-.34,209.19,.16,199.03,0,107.59,.05,52.44,74.03,18.53,119.51,16.65,168.38,16.85,186.43H407.2Zm-37.39-68.27c4.1,0,7.41,3.31,7.41,7.41s-3.31,7.41-7.41,7.41-7.41-3.32-7.41-7.41,3.31-7.41,7.41-7.41Zm-12.06-26.39c4.09,0,7.41,3.32,7.41,7.41s-3.32,7.41-7.41,7.41-7.41-3.31-7.41-7.41,3.31-7.41,7.41-7.41Zm-16.63,24.23c4.1,0,7.41,3.32,7.41,7.41s-3.31,7.41-7.41,7.41-7.41-3.31-7.41-7.41,3.31-7.41,7.41-7.41Zm-105.46-37.03c6.25-11.08,16.92-20.42,30.02-26.29,27.47-12.29,57.38-5.35,66.69,15.48,4.6,10.29,3.59,22.27-2.89,33.75-6.24,11.09-16.91,20.42-30.01,26.29-9.05,4.05-18.56,6.13-27.67,6.13-4.09,0-8.08-.42-11.93-1.26-12.87-2.83-22.49-10.04-27.09-20.34-4.62-10.3-3.59-22.28,2.88-33.76Zm-24.42,75.21c8.4,.75,15-4.94,19.42-11.91,.72-1.18,2.67-.42,2.41,.94-2.81,17.93-23.35,24.81-36.88,12.88-3.79-3.49-6.64-7.72-7.95-12.7-.35-1.36,1.46-2.26,2.35-1.17,5.88,5.91,12.25,11.44,20.66,11.96ZM91.67,68.16c9.32-20.83,39.24-27.77,66.69-15.48,13.1,5.87,23.77,15.21,30.02,26.29,6.47,11.48,7.49,23.46,2.89,33.76-4.6,10.3-14.23,17.51-27.09,20.34-3.85,.84-7.86,1.26-11.93,1.26-9.12,0-18.62-2.08-27.67-6.13-13.1-5.87-23.77-15.2-30.02-26.29-6.47-11.48-7.49-23.46-2.89-33.75Z"/>
      <g>
        <path class="cls-2" d="M396.71,254.26h-40.26c-12.52,1.31-22.04,4.83-28.02,7.56-8.81,4.02-15.1,8.67-18.14,10.94-4.43,3.31-7.94,6.47-10.49,8.94-4.88-4.98-12.3-11.42-22.56-16.88-13.16-7-24.12-9.68-31.92-10.56H27.34c-10.63,0-19.25,8.62-19.25,19.25s8.62,19.25,19.25,19.25H396.71c10.63,0,19.25-8.62,19.25-19.25s-8.62-19.25-19.25-19.25Z"/>
        <path class="cls-1" d="M27.51,302.61c0,36.3,29.43,65.73,65.73,65.73h237.58c36.3,0,65.73-29.43,65.73-65.73h0s-369.03,0-369.03,0h0Z"/>
      </g>
      <g>
        <path class="cls-6" d="M3.18,211.84c.99,.06,1.95,.11,2.92,.17q10.77,2.65,19.98,9.01c4.98,3.3,9.15,5.03,15.14,6.13,11.79,1.18,19.75-2.24,29.15-8.65,3.23-2.43,6.18-4.38,10.05-5.77,8.22-1.12,16.4-1.21,23.35,3.41,1.69,1.19,3.4,2.35,5.13,3.49q1.35,.88,2.68,1.75c5.71,4.01,10.85,5.12,17.85,5.36,.96,.01,1.89,.03,2.82,.04,9.29,.23,14.83-2.25,22.34-7.28,4.12-3.01,7.84-5.66,13.01-6.58,11.04-.96,16.77-.17,25.66,5.99,6.84,4.83,13.05,7.62,21.67,7.61,.79-.02,1.56-.03,2.33-.05,7.92,.03,13.39-1.03,20.14-5.32,6.14-4,11.91-8.04,19.51-8.78,1.21,.02,2.39,.03,3.57,.05,5.69,.02,9.53,.68,14.27,3.71,1.67,1.19,3.36,2.35,5.07,3.49,.9,.59,1.78,1.17,2.65,1.75,5.68,3.93,10.66,5.09,17.59,5.27,.92,0,1.82,.01,2.71,.02,7.67,.05,13.24-.95,19.72-5.23,5.08-3.81,9.8-7.6,16.28-8.71,11.07-.93,17.83,.45,26.64,6.73,6.84,4.88,11.46,6.85,20.04,6.97,2.4-.03,4.83,.49,6.6-1.2,.04-1.92,.04-3.84,0-5.77q-2.01-.96-3.94-1.16c-8.13-.56-13.16-2.85-19.62-7.49-6.54-4.92-12.48-7.08-20.79-7.12-.84,.01-1.65,.02-2.46,.03-7.59-.1-12.64,.8-19.09,4.86-5.14,3.71-10.19,7.46-16.53,8.95-7.47,.51-14.84,1.26-21.17-3.06-6.2-4.32-12.57-8.51-20.04-10.39-12.09-1.49-21.26-.44-31.16,6.73-3.56,2.64-6.9,5.03-11.06,6.73-6.95,1.07-16.25,1.46-22.27-2.32-6.6-4.77-13.7-10.24-22.09-11.44-10.28-.83-20.03-.25-28.46,5.95-4.24,3.36-8.43,6.01-13.63,7.81-6.73,.9-15.43,1.41-21.21-2.32-1.7-1.19-3.42-2.37-5.15-3.52-.95-.63-1.88-1.24-2.8-1.85-8.02-5.5-14.55-6.56-24.17-6.07-1.35,.1-2.66,.2-3.97,.3-7.38,.49-11.65,3.48-17.49,7.71-3.45,2.5-6.43,4.7-10.66,5.74-8.65,.6-16.38,1.13-23.59-3.93-7.78-5.49-14.78-9.68-24.73-9.83-2.31,.06-4.29-.35-5.97,1.26,.29,2.25,.62,4.49,1.01,6.73,.74,.03,1.45,.05,2.17,.08Z"/>
        <path class="cls-6" d="M343.34,211.84c.99,.06,1.95,.11,2.92,.17q10.77,2.65,19.98,9.01c4.98,3.3,9.15,5.03,15.14,6.13,11.79,1.18,19.75-2.24,29.15-8.65,3.23-2.43,6.18-4.38,10.05-5.77,8.22-1.12,16.4-1.21,23.35,3.41,1.69,1.19,3.4,2.35,5.13,3.49q1.35,.88,2.68,1.75c5.71,4.01,10.85,5.12,17.85,5.36,.96,.01,1.89,.03,2.82,.04,9.29,.23,14.83-2.25,22.34-7.28,4.12-3.01,7.84-5.66,13.01-6.58,11.04-.96,16.77-.17,25.66,5.99,6.84,4.83,13.05,7.62,21.67,7.61,.79-.02,1.56-.03,2.33-.05,7.92,.03,13.39-1.03,20.14-5.32,6.14-4,11.91-8.04,19.51-8.78,1.21,.02,2.39,.03,3.57,.05,5.69,.02,9.53,.68,14.27,3.71,1.67,1.19,3.36,2.35,5.07,3.49,.9,.59,1.78,1.17,2.65,1.75,5.68,3.93,10.66,5.09,17.59,5.27,.92,0,1.82,.01,2.71,.02,7.67,.05,13.24-.95,19.72-5.23,5.08-3.81,9.8-7.6,16.28-8.71,11.07-.93,17.83,.45,26.64,6.73,6.84,4.88,11.46,6.85,20.04,6.97,2.4-.03,4.83,.49,6.6-1.2,.04-1.92,.04-3.84,0-5.77q-2.01-.96-3.94-1.16c-8.13-.56-13.16-2.85-19.62-7.49-6.54-4.92-12.48-7.08-20.79-7.12-.84,.01-1.65,.02-2.46,.03-7.59-.1-12.64,.8-19.09,4.86-5.14,3.71-10.19,7.46-16.53,8.95-7.47,.51-14.84,1.26-21.17-3.06-6.2-4.32-12.57-8.51-20.04-10.39-12.09-1.49-21.26-.44-31.16,6.73-3.56,2.64-6.9,5.03-11.06,6.73-6.95,1.07-16.25,1.46-22.27-2.32-6.6-4.77-13.7-10.24-22.09-11.44-10.28-.83-20.03-.25-28.46,5.95-4.24,3.36-8.43,6.01-13.63,7.81-6.73,.9-15.43,1.41-21.21-2.32-1.7-1.19-3.42-2.37-5.15-3.52-.95-.63-1.88-1.24-2.8-1.85-8.02-5.5-14.55-6.56-24.17-6.07-1.35,.1-2.66,.2-3.97,.3-7.38,.49-11.65,3.48-17.49,7.71-3.45,2.5-6.43,4.7-10.66,5.74-8.65,.6-16.38,1.13-23.59-3.93-7.78-5.49-14.78-9.68-24.73-9.83-2.31,.06-4.29-.35-5.97,1.26,.29,2.25,.62,4.49,1.01,6.73,.74,.03,1.45,.05,2.17,.08Z"/>
        <path class="cls-6" d="M683.51,211.84c.99,.06,1.95,.11,2.92,.17q10.77,2.65,19.98,9.01c4.98,3.3,9.15,5.03,15.14,6.13,11.79,1.18,19.75-2.24,29.15-8.65,3.23-2.43,6.18-4.38,10.05-5.77,8.22-1.12,16.4-1.21,23.35,3.41,1.69,1.19,3.4,2.35,5.13,3.49q1.35,.88,2.68,1.75c5.71,4.01,10.85,5.12,17.85,5.36,.96,.01,1.89,.03,2.82,.04,9.29,.23,14.83-2.25,22.34-7.28,4.12-3.01,7.84-5.66,13.01-6.58,11.04-.96,16.77-.17,25.66,5.99,6.84,4.83,13.05,7.62,21.67,7.61,.79-.02,1.56-.03,2.33-.05,7.92,.03,13.39-1.03,20.14-5.32,6.14-4,11.91-8.04,19.51-8.78,1.21,.02,2.39,.03,3.57,.05,5.69,.02,9.53,.68,14.27,3.71,1.67,1.19,3.36,2.35,5.07,3.49,.9,.59,1.78,1.17,2.65,1.75,5.68,3.93,10.66,5.09,17.59,5.27,.92,0,1.82,.01,2.71,.02,7.67,.05,13.24-.95,19.72-5.23,5.08-3.81,9.8-7.6,16.28-8.71,11.07-.93,17.83,.45,26.64,6.73,6.84,4.88,11.46,6.85,20.04,6.97,2.4-.03,4.83,.49,6.6-1.2,.04-1.92,.04-3.84,0-5.77q-2.01-.96-3.94-1.16c-8.13-.56-13.16-2.85-19.62-7.49-6.54-4.92-12.48-7.08-20.79-7.12-.84,.01-1.65,.02-2.46,.03-7.59-.1-12.64,.8-19.09,4.86-5.14,3.71-10.19,7.46-16.53,8.95-7.47,.51-14.84,1.26-21.17-3.06-6.2-4.32-12.57-8.51-20.04-10.39-12.09-1.49-21.26-.44-31.16,6.73-3.56,2.64-6.9,5.03-11.06,6.73-6.95,1.07-16.25,1.46-22.27-2.32-6.6-4.77-13.7-10.24-22.09-11.44-10.28-.83-20.03-.25-28.46,5.95-4.24,3.36-8.43,6.01-13.63,7.81-6.73,.9-15.43,1.41-21.21-2.32-1.7-1.19-3.42-2.37-5.15-3.52-.95-.63-1.88-1.24-2.8-1.85-8.02-5.5-14.55-6.56-24.17-6.07-1.35,.1-2.66,.2-3.97,.3-7.38,.49-11.65,3.48-17.49,7.71-3.45,2.5-6.43,4.7-10.66,5.74-8.65,.6-16.38,1.13-23.59-3.93-7.78-5.49-14.78-9.68-24.73-9.83-2.31,.06-4.29-.35-5.97,1.26,.29,2.25,.62,4.49,1.01,6.73,.74,.03,1.45,.05,2.17,.08Z"/>
      </g>
      <g>
        <path class="cls-3" d="M3.18,221.84c.99,.06,1.95,.11,2.92,.17q10.77,2.65,19.98,9.01c4.98,3.3,9.15,5.03,15.14,6.13,11.79,1.18,19.75-2.24,29.15-8.65,3.23-2.43,6.18-4.38,10.05-5.77,8.22-1.12,16.4-1.21,23.35,3.41,1.69,1.19,3.4,2.35,5.13,3.49q1.35,.88,2.68,1.75c5.71,4.01,10.85,5.12,17.85,5.36,.96,.01,1.89,.03,2.82,.04,9.29,.23,14.83-2.25,22.34-7.28,4.12-3.01,7.84-5.66,13.01-6.58,11.04-.96,16.77-.17,25.66,5.99,6.84,4.83,13.05,7.62,21.67,7.61,.79-.02,1.56-.03,2.33-.05,7.92,.03,13.39-1.03,20.14-5.32,6.14-4,11.91-8.04,19.51-8.78,1.21,.02,2.39,.03,3.57,.05,5.69,.02,9.53,.68,14.27,3.71,1.67,1.19,3.36,2.35,5.07,3.49,.9,.59,1.78,1.17,2.65,1.75,5.68,3.93,10.66,5.09,17.59,5.27,.92,0,1.82,.01,2.71,.02,7.67,.05,13.24-.95,19.72-5.23,5.08-3.81,9.8-7.6,16.28-8.71,11.07-.93,17.83,.45,26.64,6.73,6.84,4.88,11.46,6.85,20.04,6.97,2.4-.03,4.83,.49,6.6-1.2,.04-1.92,.04-3.84,0-5.77q-2.01-.96-3.94-1.16c-8.13-.56-13.16-2.85-19.62-7.49-6.54-4.92-12.48-7.08-20.79-7.12-.84,.01-1.65,.02-2.46,.03-7.59-.1-12.64,.8-19.09,4.86-5.14,3.71-10.19,7.46-16.53,8.95-7.47,.51-14.84,1.26-21.17-3.06-6.2-4.32-12.57-8.51-20.04-10.39-12.09-1.49-21.26-.44-31.16,6.73-3.56,2.64-6.9,5.03-11.06,6.73-6.95,1.07-16.25,1.46-22.27-2.32-6.6-4.77-13.7-10.24-22.09-11.44-10.28-.83-20.03-.25-28.46,5.95-4.24,3.36-8.43,6.01-13.63,7.81-6.73,.9-15.43,1.41-21.21-2.32-1.7-1.19-3.42-2.37-5.15-3.52-.95-.63-1.88-1.24-2.8-1.85-8.02-5.5-14.55-6.56-24.17-6.07-1.35,.1-2.66,.2-3.97,.3-7.38,.49-11.65,3.48-17.49,7.71-3.45,2.5-6.43,4.7-10.66,5.74-8.65,.6-16.38,1.13-23.59-3.93-7.78-5.49-14.78-9.68-24.73-9.83-2.31,.06-4.29-.35-5.97,1.26,.29,2.25,.62,4.49,1.01,6.73,.74,.03,1.45,.05,2.17,.08Z"/>
        <path class="cls-3" d="M343.34,221.84c.99,.06,1.95,.11,2.92,.17q10.77,2.65,19.98,9.01c4.98,3.3,9.15,5.03,15.14,6.13,11.79,1.18,19.75-2.24,29.15-8.65,3.23-2.43,6.18-4.38,10.05-5.77,8.22-1.12,16.4-1.21,23.35,3.41,1.69,1.19,3.4,2.35,5.13,3.49q1.35,.88,2.68,1.75c5.71,4.01,10.85,5.12,17.85,5.36,.96,.01,1.89,.03,2.82,.04,9.29,.23,14.83-2.25,22.34-7.28,4.12-3.01,7.84-5.66,13.01-6.58,11.04-.96,16.77-.17,25.66,5.99,6.84,4.83,13.05,7.62,21.67,7.61,.79-.02,1.56-.03,2.33-.05,7.92,.03,13.39-1.03,20.14-5.32,6.14-4,11.91-8.04,19.51-8.78,1.21,.02,2.39,.03,3.57,.05,5.69,.02,9.53,.68,14.27,3.71,1.67,1.19,3.36,2.35,5.07,3.49,.9,.59,1.78,1.17,2.65,1.75,5.68,3.93,10.66,5.09,17.59,5.27,.92,0,1.82,.01,2.71,.02,7.67,.05,13.24-.95,19.72-5.23,5.08-3.81,9.8-7.6,16.28-8.71,11.07-.93,17.83,.45,26.64,6.73,6.84,4.88,11.46,6.85,20.04,6.97,2.4-.03,4.83,.49,6.6-1.2,.04-1.92,.04-3.84,0-5.77q-2.01-.96-3.94-1.16c-8.13-.56-13.16-2.85-19.62-7.49-6.54-4.92-12.48-7.08-20.79-7.12-.84,.01-1.65,.02-2.46,.03-7.59-.1-12.64,.8-19.09,4.86-5.14,3.71-10.19,7.46-16.53,8.95-7.47,.51-14.84,1.26-21.17-3.06-6.2-4.32-12.57-8.51-20.04-10.39-12.09-1.49-21.26-.44-31.16,6.73-3.56,2.64-6.9,5.03-11.06,6.73-6.95,1.07-16.25,1.46-22.27-2.32-6.6-4.77-13.7-10.24-22.09-11.44-10.28-.83-20.03-.25-28.46,5.95-4.24,3.36-8.43,6.01-13.63,7.81-6.73,.9-15.43,1.41-21.21-2.32-1.7-1.19-3.42-2.37-5.15-3.52-.95-.63-1.88-1.24-2.8-1.85-8.02-5.5-14.55-6.56-24.17-6.07-1.35,.1-2.66,.2-3.97,.3-7.38,.49-11.65,3.48-17.49,7.71-3.45,2.5-6.43,4.7-10.66,5.74-8.65,.6-16.38,1.13-23.59-3.93-7.78-5.49-14.78-9.68-24.73-9.83-2.31,.06-4.29-.35-5.97,1.26,.29,2.25,.62,4.49,1.01,6.73,.74,.03,1.45,.05,2.17,.08Z"/>
        <path class="cls-3" d="M683.51,221.84c.99,.06,1.95,.11,2.92,.17q10.77,2.65,19.98,9.01c4.98,3.3,9.15,5.03,15.14,6.13,11.79,1.18,19.75-2.24,29.15-8.65,3.23-2.43,6.18-4.38,10.05-5.77,8.22-1.12,16.4-1.21,23.35,3.41,1.69,1.19,3.4,2.35,5.13,3.49q1.35,.88,2.68,1.75c5.71,4.01,10.85,5.12,17.85,5.36,.96,.01,1.89,.03,2.82,.04,9.29,.23,14.83-2.25,22.34-7.28,4.12-3.01,7.84-5.66,13.01-6.58,11.04-.96,16.77-.17,25.66,5.99,6.84,4.83,13.05,7.62,21.67,7.61,.79-.02,1.56-.03,2.33-.05,7.92,.03,13.39-1.03,20.14-5.32,6.14-4,11.91-8.04,19.51-8.78,1.21,.02,2.39,.03,3.57,.05,5.69,.02,9.53,.68,14.27,3.71,1.67,1.19,3.36,2.35,5.07,3.49,.9,.59,1.78,1.17,2.65,1.75,5.68,3.93,10.66,5.09,17.59,5.27,.92,0,1.82,.01,2.71,.02,7.67,.05,13.24-.95,19.72-5.23,5.08-3.81,9.8-7.6,16.28-8.71,11.07-.93,17.83,.45,26.64,6.73,6.84,4.88,11.46,6.85,20.04,6.97,2.4-.03,4.83,.49,6.6-1.2,.04-1.92,.04-3.84,0-5.77q-2.01-.96-3.94-1.16c-8.13-.56-13.16-2.85-19.62-7.49-6.54-4.92-12.48-7.08-20.79-7.12-.84,.01-1.65,.02-2.46,.03-7.59-.1-12.64,.8-19.09,4.86-5.14,3.71-10.19,7.46-16.53,8.95-7.47,.51-14.84,1.26-21.17-3.06-6.2-4.32-12.57-8.51-20.04-10.39-12.09-1.49-21.26-.44-31.16,6.73-3.56,2.64-6.9,5.03-11.06,6.73-6.95,1.07-16.25,1.46-22.27-2.32-6.6-4.77-13.7-10.24-22.09-11.44-10.28-.83-20.03-.25-28.46,5.95-4.24,3.36-8.43,6.01-13.63,7.81-6.73,.9-15.43,1.41-21.21-2.32-1.7-1.19-3.42-2.37-5.15-3.52-.95-.63-1.88-1.24-2.8-1.85-8.02-5.5-14.55-6.56-24.17-6.07-1.35,.1-2.66,.2-3.97,.3-7.38,.49-11.65,3.48-17.49,7.71-3.45,2.5-6.43,4.7-10.66,5.74-8.65,.6-16.38,1.13-23.59-3.93-7.78-5.49-14.78-9.68-24.73-9.83-2.31,.06-4.29-.35-5.97,1.26,.29,2.25,.62,4.49,1.01,6.73,.74,.03,1.45,.05,2.17,.08Z"/>
      </g>
      <g>
        <path class="cls-5" d="M3.18,211.84c.99,.06,1.95,.11,2.92,.17q10.77,2.65,19.98,9.01c4.98,3.3,9.15,5.03,15.14,6.13,11.79,1.18,19.75-2.24,29.15-8.65,3.23-2.43,6.18-4.38,10.05-5.77,8.22-1.12,16.4-1.21,23.35,3.41,1.69,1.19,3.4,2.35,5.13,3.49q1.35,.88,2.68,1.75c5.71,4.01,10.85,5.12,17.85,5.36,.96,.01,1.89,.03,2.82,.04,9.29,.23,14.83-2.25,22.34-7.28,4.12-3.01,7.84-5.66,13.01-6.58,11.04-.96,16.77-.17,25.66,5.99,6.84,4.83,13.05,7.62,21.67,7.61,.79-.02,1.56-.03,2.33-.05,7.92,.03,13.39-1.03,20.14-5.32,6.14-4,11.91-8.04,19.51-8.78,1.21,.02,2.39,.03,3.57,.05,5.69,.02,9.53,.68,14.27,3.71,1.67,1.19,3.36,2.35,5.07,3.49,.9,.59,1.78,1.17,2.65,1.75,5.68,3.93,10.66,5.09,17.59,5.27,.92,0,1.82,.01,2.71,.02,7.67,.05,13.24-.95,19.72-5.23,5.08-3.81,9.8-7.6,16.28-8.71,11.07-.93,17.83,.45,26.64,6.73,6.84,4.88,11.46,6.85,20.04,6.97,2.4-.03,4.83,.49,6.6-1.2,.04-1.92,.04-3.84,0-5.77q-2.01-.96-3.94-1.16c-8.13-.56-13.16-2.85-19.62-7.49-6.54-4.92-12.48-7.08-20.79-7.12-.84,.01-1.65,.02-2.46,.03-7.59-.1-12.64,.8-19.09,4.86-5.14,3.71-10.19,7.46-16.53,8.95-7.47,.51-14.84,1.26-21.17-3.06-6.2-4.32-12.57-8.51-20.04-10.39-12.09-1.49-21.26-.44-31.16,6.73-3.56,2.64-6.9,5.03-11.06,6.73-6.95,1.07-16.25,1.46-22.27-2.32-6.6-4.77-13.7-10.24-22.09-11.44-10.28-.83-20.03-.25-28.46,5.95-4.24,3.36-8.43,6.01-13.63,7.81-6.73,.9-15.43,1.41-21.21-2.32-1.7-1.19-3.42-2.37-5.15-3.52-.95-.63-1.88-1.24-2.8-1.85-8.02-5.5-14.55-6.56-24.17-6.07-1.35,.1-2.66,.2-3.97,.3-7.38,.49-11.65,3.48-17.49,7.71-3.45,2.5-6.43,4.7-10.66,5.74-8.65,.6-16.38,1.13-23.59-3.93-7.78-5.49-14.78-9.68-24.73-9.83-2.31,.06-4.29-.35-5.97,1.26,.29,2.25,.62,4.49,1.01,6.73,.74,.03,1.45,.05,2.17,.08Z"/>
        <path class="cls-5" d="M343.34,211.84c.99,.06,1.95,.11,2.92,.17q10.77,2.65,19.98,9.01c4.98,3.3,9.15,5.03,15.14,6.13,11.79,1.18,19.75-2.24,29.15-8.65,3.23-2.43,6.18-4.38,10.05-5.77,8.22-1.12,16.4-1.21,23.35,3.41,1.69,1.19,3.4,2.35,5.13,3.49q1.35,.88,2.68,1.75c5.71,4.01,10.85,5.12,17.85,5.36,.96,.01,1.89,.03,2.82,.04,9.29,.23,14.83-2.25,22.34-7.28,4.12-3.01,7.84-5.66,13.01-6.58,11.04-.96,16.77-.17,25.66,5.99,6.84,4.83,13.05,7.62,21.67,7.61,.79-.02,1.56-.03,2.33-.05,7.92,.03,13.39-1.03,20.14-5.32,6.14-4,11.91-8.04,19.51-8.78,1.21,.02,2.39,.03,3.57,.05,5.69,.02,9.53,.68,14.27,3.71,1.67,1.19,3.36,2.35,5.07,3.49,.9,.59,1.78,1.17,2.65,1.75,5.68,3.93,10.66,5.09,17.59,5.27,.92,0,1.82,.01,2.71,.02,7.67,.05,13.24-.95,19.72-5.23,5.08-3.81,9.8-7.6,16.28-8.71,11.07-.93,17.83,.45,26.64,6.73,6.84,4.88,11.46,6.85,20.04,6.97,2.4-.03,4.83,.49,6.6-1.2,.04-1.92,.04-3.84,0-5.77q-2.01-.96-3.94-1.16c-8.13-.56-13.16-2.85-19.62-7.49-6.54-4.92-12.48-7.08-20.79-7.12-.84,.01-1.65,.02-2.46,.03-7.59-.1-12.64,.8-19.09,4.86-5.14,3.71-10.19,7.46-16.53,8.95-7.47,.51-14.84,1.26-21.17-3.06-6.2-4.32-12.57-8.51-20.04-10.39-12.09-1.49-21.26-.44-31.16,6.73-3.56,2.64-6.9,5.03-11.06,6.73-6.95,1.07-16.25,1.46-22.27-2.32-6.6-4.77-13.7-10.24-22.09-11.44-10.28-.83-20.03-.25-28.46,5.95-4.24,3.36-8.43,6.01-13.63,7.81-6.73,.9-15.43,1.41-21.21-2.32-1.7-1.19-3.42-2.37-5.15-3.52-.95-.63-1.88-1.24-2.8-1.85-8.02-5.5-14.55-6.56-24.17-6.07-1.35,.1-2.66,.2-3.97,.3-7.38,.49-11.65,3.48-17.49,7.71-3.45,2.5-6.43,4.7-10.66,5.74-8.65,.6-16.38,1.13-23.59-3.93-7.78-5.49-14.78-9.68-24.73-9.83-2.31,.06-4.29-.35-5.97,1.26,.29,2.25,.62,4.49,1.01,6.73,.74,.03,1.45,.05,2.17,.08Z"/>
        <path class="cls-5" d="M683.51,211.84c.99,.06,1.95,.11,2.92,.17q10.77,2.65,19.98,9.01c4.98,3.3,9.15,5.03,15.14,6.13,11.79,1.18,19.75-2.24,29.15-8.65,3.23-2.43,6.18-4.38,10.05-5.77,8.22-1.12,16.4-1.21,23.35,3.41,1.69,1.19,3.4,2.35,5.13,3.49q1.35,.88,2.68,1.75c5.71,4.01,10.85,5.12,17.85,5.36,.96,.01,1.89,.03,2.82,.04,9.29,.23,14.83-2.25,22.34-7.28,4.12-3.01,7.84-5.66,13.01-6.58,11.04-.96,16.77-.17,25.66,5.99,6.84,4.83,13.05,7.62,21.67,7.61,.79-.02,1.56-.03,2.33-.05,7.92,.03,13.39-1.03,20.14-5.32,6.14-4,11.91-8.04,19.51-8.78,1.21,.02,2.39,.03,3.57,.05,5.69,.02,9.53,.68,14.27,3.71,1.67,1.19,3.36,2.35,5.07,3.49,.9,.59,1.78,1.17,2.65,1.75,5.68,3.93,10.66,5.09,17.59,5.27,.92,0,1.82,.01,2.71,.02,7.67,.05,13.24-.95,19.72-5.23,5.08-3.81,9.8-7.6,16.28-8.71,11.07-.93,17.83,.45,26.64,6.73,6.84,4.88,11.46,6.85,20.04,6.97,2.4-.03,4.83,.49,6.6-1.2,.04-1.92,.04-3.84,0-5.77q-2.01-.96-3.94-1.16c-8.13-.56-13.16-2.85-19.62-7.49-6.54-4.92-12.48-7.08-20.79-7.12-.84,.01-1.65,.02-2.46,.03-7.59-.1-12.64,.8-19.09,4.86-5.14,3.71-10.19,7.46-16.53,8.95-7.47,.51-14.84,1.26-21.17-3.06-6.2-4.32-12.57-8.51-20.04-10.39-12.09-1.49-21.26-.44-31.16,6.73-3.56,2.64-6.9,5.03-11.06,6.73-6.95,1.07-16.25,1.46-22.27-2.32-6.6-4.77-13.7-10.24-22.09-11.44-10.28-.83-20.03-.25-28.46,5.95-4.24,3.36-8.43,6.01-13.63,7.81-6.73,.9-15.43,1.41-21.21-2.32-1.7-1.19-3.42-2.37-5.15-3.52-.95-.63-1.88-1.24-2.8-1.85-8.02-5.5-14.55-6.56-24.17-6.07-1.35,.1-2.66,.2-3.97,.3-7.38,.49-11.65,3.48-17.49,7.71-3.45,2.5-6.43,4.7-10.66,5.74-8.65,.6-16.38,1.13-23.59-3.93-7.78-5.49-14.78-9.68-24.73-9.83-2.31,.06-4.29-.35-5.97,1.26,.29,2.25,.62,4.49,1.01,6.73,.74,.03,1.45,.05,2.17,.08Z"/>
      </g>
      <g>
        <path class="cls-6" d="M3.18,201.84c.99,.06,1.95,.11,2.92,.17q10.77,2.65,19.98,9.01c4.98,3.3,9.15,5.03,15.14,6.13,11.79,1.18,19.75-2.24,29.15-8.65,3.23-2.43,6.18-4.38,10.05-5.77,8.22-1.12,16.4-1.21,23.35,3.41,1.69,1.19,3.4,2.35,5.13,3.49q1.35,.88,2.68,1.75c5.71,4.01,10.85,5.12,17.85,5.36,.96,.01,1.89,.03,2.82,.04,9.29,.23,14.83-2.25,22.34-7.28,4.12-3.01,7.84-5.66,13.01-6.58,11.04-.96,16.77-.17,25.66,5.99,6.84,4.83,13.05,7.62,21.67,7.61,.79-.02,1.56-.03,2.33-.05,7.92,.03,13.39-1.03,20.14-5.32,6.14-4,11.91-8.04,19.51-8.78,1.21,.02,2.39,.03,3.57,.05,5.69,.02,9.53,.68,14.27,3.71,1.67,1.19,3.36,2.35,5.07,3.49,.9,.59,1.78,1.17,2.65,1.75,5.68,3.93,10.66,5.09,17.59,5.27,.92,0,1.82,.01,2.71,.02,7.67,.05,13.24-.95,19.72-5.23,5.08-3.81,9.8-7.6,16.28-8.71,11.07-.93,17.83,.45,26.64,6.73,6.84,4.88,11.46,6.85,20.04,6.97,2.4-.03,4.83,.49,6.6-1.2,.04-1.92,.04-3.84,0-5.77q-2.01-.96-3.94-1.16c-8.13-.56-13.16-2.85-19.62-7.49-6.54-4.92-12.48-7.08-20.79-7.12-.84,.01-1.65,.02-2.46,.03-7.59-.1-12.64,.8-19.09,4.86-5.14,3.71-10.19,7.46-16.53,8.95-7.47,.51-14.84,1.26-21.17-3.06-6.2-4.32-12.57-8.51-20.04-10.39-12.09-1.49-21.26-.44-31.16,6.73-3.56,2.64-6.9,5.03-11.06,6.73-6.95,1.07-16.25,1.46-22.27-2.32-6.6-4.77-13.7-10.24-22.09-11.44-10.28-.83-20.03-.25-28.46,5.95-4.24,3.36-8.43,6.01-13.63,7.81-6.73,.9-15.43,1.41-21.21-2.32-1.7-1.19-3.42-2.37-5.15-3.52-.95-.63-1.88-1.24-2.8-1.85-8.02-5.5-14.55-6.56-24.17-6.07-1.35,.1-2.66,.2-3.97,.3-7.38,.49-11.65,3.48-17.49,7.71-3.45,2.5-6.43,4.7-10.66,5.74-8.65,.6-16.38,1.13-23.59-3.93-7.78-5.49-14.78-9.68-24.73-9.83-2.31,.06-4.29-.35-5.97,1.26,.29,2.25,.62,4.49,1.01,6.73,.74,.03,1.45,.05,2.17,.08Z"/>
        <path class="cls-6" d="M343.34,201.84c.99,.06,1.95,.11,2.92,.17q10.77,2.65,19.98,9.01c4.98,3.3,9.15,5.03,15.14,6.13,11.79,1.18,19.75-2.24,29.15-8.65,3.23-2.43,6.18-4.38,10.05-5.77,8.22-1.12,16.4-1.21,23.35,3.41,1.69,1.19,3.4,2.35,5.13,3.49q1.35,.88,2.68,1.75c5.71,4.01,10.85,5.12,17.85,5.36,.96,.01,1.89,.03,2.82,.04,9.29,.23,14.83-2.25,22.34-7.28,4.12-3.01,7.84-5.66,13.01-6.58,11.04-.96,16.77-.17,25.66,5.99,6.84,4.83,13.05,7.62,21.67,7.61,.79-.02,1.56-.03,2.33-.05,7.92,.03,13.39-1.03,20.14-5.32,6.14-4,11.91-8.04,19.51-8.78,1.21,.02,2.39,.03,3.57,.05,5.69,.02,9.53,.68,14.27,3.71,1.67,1.19,3.36,2.35,5.07,3.49,.9,.59,1.78,1.17,2.65,1.75,5.68,3.93,10.66,5.09,17.59,5.27,.92,0,1.82,.01,2.71,.02,7.67,.05,13.24-.95,19.72-5.23,5.08-3.81,9.8-7.6,16.28-8.71,11.07-.93,17.83,.45,26.64,6.73,6.84,4.88,11.46,6.85,20.04,6.97,2.4-.03,4.83,.49,6.6-1.2,.04-1.92,.04-3.84,0-5.77q-2.01-.96-3.94-1.16c-8.13-.56-13.16-2.85-19.62-7.49-6.54-4.92-12.48-7.08-20.79-7.12-.84,.01-1.65,.02-2.46,.03-7.59-.1-12.64,.8-19.09,4.86-5.14,3.71-10.19,7.46-16.53,8.95-7.47,.51-14.84,1.26-21.17-3.06-6.2-4.32-12.57-8.51-20.04-10.39-12.09-1.49-21.26-.44-31.16,6.73-3.56,2.64-6.9,5.03-11.06,6.73-6.95,1.07-16.25,1.46-22.27-2.32-6.6-4.77-13.7-10.24-22.09-11.44-10.28-.83-20.03-.25-28.46,5.95-4.24,3.36-8.43,6.01-13.63,7.81-6.73,.9-15.43,1.41-21.21-2.32-1.7-1.19-3.42-2.37-5.15-3.52-.95-.63-1.88-1.24-2.8-1.85-8.02-5.5-14.55-6.56-24.17-6.07-1.35,.1-2.66,.2-3.97,.3-7.38,.49-11.65,3.48-17.49,7.71-3.45,2.5-6.43,4.7-10.66,5.74-8.65,.6-16.38,1.13-23.59-3.93-7.78-5.49-14.78-9.68-24.73-9.83-2.31,.06-4.29-.35-5.97,1.26,.29,2.25,.62,4.49,1.01,6.73,.74,.03,1.45,.05,2.17,.08Z"/>
        <path class="cls-6" d="M683.51,201.84c.99,.06,1.95,.11,2.92,.17q10.77,2.65,19.98,9.01c4.98,3.3,9.15,5.03,15.14,6.13,11.79,1.18,19.75-2.24,29.15-8.65,3.23-2.43,6.18-4.38,10.05-5.77,8.22-1.12,16.4-1.21,23.35,3.41,1.69,1.19,3.4,2.35,5.13,3.49q1.35,.88,2.68,1.75c5.71,4.01,10.85,5.12,17.85,5.36,.96,.01,1.89,.03,2.82,.04,9.29,.23,14.83-2.25,22.34-7.28,4.12-3.01,7.84-5.66,13.01-6.58,11.04-.96,16.77-.17,25.66,5.99,6.84,4.83,13.05,7.62,21.67,7.61,.79-.02,1.56-.03,2.33-.05,7.92,.03,13.39-1.03,20.14-5.32,6.14-4,11.91-8.04,19.51-8.78,1.21,.02,2.39,.03,3.57,.05,5.69,.02,9.53,.68,14.27,3.71,1.67,1.19,3.36,2.35,5.07,3.49,.9,.59,1.78,1.17,2.65,1.75,5.68,3.93,10.66,5.09,17.59,5.27,.92,0,1.82,.01,2.71,.02,7.67,.05,13.24-.95,19.72-5.23,5.08-3.81,9.8-7.6,16.28-8.71,11.07-.93,17.83,.45,26.64,6.73,6.84,4.88,11.46,6.85,20.04,6.97,2.4-.03,4.83,.49,6.6-1.2,.04-1.92,.04-3.84,0-5.77q-2.01-.96-3.94-1.16c-8.13-.56-13.16-2.85-19.62-7.49-6.54-4.92-12.48-7.08-20.79-7.12-.84,.01-1.65,.02-2.46,.03-7.59-.1-12.64,.8-19.09,4.86-5.14,3.71-10.19,7.46-16.53,8.95-7.47,.51-14.84,1.26-21.17-3.06-6.2-4.32-12.57-8.51-20.04-10.39-12.09-1.49-21.26-.44-31.16,6.73-3.56,2.64-6.9,5.03-11.06,6.73-6.95,1.07-16.25,1.46-22.27-2.32-6.6-4.77-13.7-10.24-22.09-11.44-10.28-.83-20.03-.25-28.46,5.95-4.24,3.36-8.43,6.01-13.63,7.81-6.73,.9-15.43,1.41-21.21-2.32-1.7-1.19-3.42-2.37-5.15-3.52-.95-.63-1.88-1.24-2.8-1.85-8.02-5.5-14.55-6.56-24.17-6.07-1.35,.1-2.66,.2-3.97,.3-7.38,.49-11.65,3.48-17.49,7.71-3.45,2.5-6.43,4.7-10.66,5.74-8.65,.6-16.38,1.13-23.59-3.93-7.78-5.49-14.78-9.68-24.73-9.83-2.31,.06-4.29-.35-5.97,1.26,.29,2.25,.62,4.49,1.01,6.73,.74,.03,1.45,.05,2.17,.08Z"/>
      </g>
    </g>
  </g>
</svg>